HIERARCHY
ROOT ui
{
	 OFFSET 0 0 0
	 CHANNELS 3 XPosition YPosition Z Position
	 EndSite
	 {
	 OFFSET 0 -1 0
	 }
}
ROOT li
{
	 OFFSET 0 0 0
	 CHANNELS 3 XPosition YPosition Z Position
	 EndSite
	 {
	 OFFSET 0 -1 0
	 }
}
ROOT ul
{
	 OFFSET 0 0 0
	 CHANNELS 3 XPosition YPosition Z Position
	 EndSite
	 {
	 OFFSET 0 -1 0
	 }
}
ROOT ll
{
	 OFFSET 0 0 0
	 CHANNELS 3 XPosition YPosition Z Position
	 EndSite
	 {
	 OFFSET 0 -1 0
	 }
}
ROOT tt
{
	 OFFSET 0 0 0
	 CHANNELS 3 XPosition YPosition Z Position
	 EndSite
	 {
	 OFFSET 0 -1 0
	 }
}
ROOT tb
{
	 OFFSET 0 0 0
	 CHANNELS 3 XPosition YPosition Z Position
	 EndSite
	 {
	 OFFSET 0 -1 0
	 }
}
ROOT td
{
	 OFFSET 0 0 0
	 CHANNELS 3 XPosition YPosition Z Position
	 EndSite
	 {
	 OFFSET 0 -1 0
	 }
}
ROOT v
{
	 OFFSET 0 0 0
	 CHANNELS 3 XPosition YPosition Z Position
	 EndSite
	 {
	 OFFSET 0 -1 0
	 }
}
ROOT bn
{
	 OFFSET 0 0 0
	 CHANNELS 3 XPosition YPosition Z Position
	 EndSite
	 {
	 OFFSET 0 -1 0
	 }
}
MOTION
Frames: 27
Frame Time: 0.002
-0.032293701171875	-0.0018737390041351318	0		0.5540328369140625	-2.456897705078125	0		-0.9366919555664063	0.2612398986816406	0		-0.26375588989257814	-2.92869287109375	0		1.6135009765625	-0.5274608154296875	0		3.15226953125	0.03808430480957031	0		4.39120947265625	0.22462718200683593	0		5.9775302734375	0.3884632568359375	0		-0.28388027954101563	5.90395654296875	0		
-0.0017128210067749023	5.815320014953613E-4	0		0.584693603515625	-2.4554208984375	0		-0.93019970703125	0.25590306091308596	0		-0.2879648132324219	-2.915695068359375	0		1.609892333984375	-0.5456033325195313	0		3.148970947265625	0.0529964599609375	0		4.3918935546875	0.23854466247558595	0		5.985193359375	0.42111907958984374	0		-0.2684347229003906	5.914552734375	0		
0.005778890132904052	0.0073352308273315426	0		0.563300537109375	-2.448350830078125	0		-1.00469580078125	0.2654319458007813	0		-0.28032803344726565	-2.907954833984375	0		1.6313287353515624	-0.546914306640625	0		3.14831103515625	0.044976692199707034	0		4.3923046875	0.23857208251953124	0		5.9818642578125	0.4058140563964844	0		-0.2493472900390625	5.90817529296875	0		
0.0030238749980926512	0.0032590548992156984	0		0.6027102661132813	-2.449812744140625	0		-0.93546875	0.26058489990234374	0		-0.28877117919921874	-2.896988037109375	0		1.621525634765625	-0.5588298950195313	0		3.158652587890625	0.050946418762207034	0		4.38837841796875	0.21875144958496093	0		5.982068359375	0.40621066284179685	0		-0.2834400634765625	5.90339208984375	0		
-0.03089310073852539	-0.002440095901489258	0		0.5510616455078124	-2.444296142578125	0		-0.9393841552734375	0.256529052734375	0		-0.15553785705566406	-2.9073525390625	0		1.618663330078125	-0.5627297973632812	0		3.1356923828125	0.041343578338623045	0		4.38457421875	0.22604019165039063	0		5.98216943359375	0.40682498168945314	0		-0.26373226928710936	5.89814208984375	0		
-0.003903225898742676	-0.0026682779788970946	0		0.5731617431640625	-2.451432373046875	0		-0.9394119262695313	0.2564986572265625	0		-0.2811619873046875	-2.88909326171875	0		1.6085784912109375	-0.5744747924804687	0		3.135680419921875	0.041611053466796874	0		4.38847998046875	0.21936013793945314	0		5.96718603515625	0.4080073547363281	0		-0.2690155639648438	5.91420947265625	0		
-0.02703382110595703	6.674559712409973E-4	0		0.5352285766601562	-2.44790478515625	0		-0.9986392822265625	0.2521090087890625	0		-0.2651207275390625	-2.892158203125	0		1.611366455078125	-0.58426123046875	0		3.173417236328125	0.031607622146606444	0		4.38135986328125	0.22589334106445313	0		5.98567822265625	0.42416867065429686	0		-0.2676809692382813	5.91128125	0		
0.005720530986785889	0.007536763191223144	0		0.5901066284179688	-2.4501982421875	0		-0.998972412109375	0.25221221923828124	0		-0.29996929931640626	-2.869656005859375	0		1.61110546875	-0.5839328002929688	0		3.1502001953125	0.04229165267944336	0		4.38810546875	0.23439314270019532	0		5.97047900390625	0.4257445983886719	0		-0.28458831787109373	5.90260205078125	0		
0.0052624959945678715	0.007804388046264648	0		0.552949462890625	-2.441525390625	0		-0.9254655151367187	0.2506836395263672	0		-0.27123431396484377	-2.876692138671875	0		1.660517822265625	-0.6029950561523437	0		3.14055859375	0.023931177139282226	0		4.39543603515625	0.21498304748535157	0		5.97437060546875	0.41148004150390627	0		-0.3357313842773437	5.8873203125	0		
-0.00543003511428833	-0.0017553839683532714	0		0.57653173828125	-2.446354736328125	0		-0.9301244506835937	0.2469799346923828	0		-0.3243532104492188	-2.853873291015625	0		1.59700732421875	-0.5989005126953125	0		3.14489208984375	0.017523019790649415	0		4.383818359375	0.21584291076660156	0		5.966099609375	0.41322796630859376	0		-0.3169280090332031	5.8824453125	0		
-0.006162897109985351	-0.0013340779542922974	0		0.5740120849609375	-2.447859619140625	0		-0.93590869140625	0.2443603973388672	0		-0.2878078918457031	-2.852827880859375	0		1.5980975341796875	-0.6233448486328125	0		3.186099609375	0.011851020812988281	0		4.394064453125	0.21657765197753906	0		5.9655771484375	0.41494073486328126	0		-0.31722821044921873	5.88182763671875	0		
-0.007024928092956543	-8.372690081596374E-4	0		0.5583453369140625	-2.4511689453125	0		-1.0008004760742188	0.2443609161376953	0		-0.330462890625	-2.85896923828125	0		1.6032293701171876	-0.6297513427734375	0		3.150311767578125	0.02097330665588379	0		4.39017236328125	0.2165188446044922	0		5.9685888671875	0.43227203369140627	0		-0.318647216796875	5.88229541015625	0		
0.00208221697807312	0.009641815185546875	0		0.5855884399414063	-2.450801513671875	0		-0.9218563842773437	0.23910739135742187	0		-0.3010628356933594	-2.845703369140625	0		1.6023040771484376	-0.6290302734375	0		3.159197021484375	0.0077475509643554685	0		4.408103515625	0.21032594299316407	0		5.96426123046875	0.4187373046875	0		-0.3201792907714844	5.8828369140625	0		
-0.009106381416320801	3.7729200720787047E-4	0		0.5498134155273438	-2.43878759765625	0		-1.0020084838867187	0.2363844451904297	0		-0.3457928161621094	-2.83268798828125	0		1.5952001953125	-0.6351867065429687	0		3.17309814453125	0.008541183471679687	0		4.39499658203125	0.21247697448730468	0		5.9634794921875	0.4207877502441406	0		-0.33591622924804687	5.871580078125	0		
-0.010307947158813476	0.0010907800197601319	0		0.57968603515625	-2.4533037109375	0		-0.9383048095703125	0.2284293212890625	0		-0.3097428894042969	-2.831335693359375	0		1.6509522705078126	-0.64584619140625	0		3.14880712890625	-2.64400988817215E-4	0		4.39765966796875	0.200534423828125	0		5.97174072265625	0.3811956481933594	0		-0.33762350463867186	5.87226513671875	0		
-0.011602446556091309	0.0018709399700164795	0		0.5526083984375	-2.45024462890625	0		-1.0076505737304688	0.22573959350585937	0		-0.34478076171875	-2.82727734375	0		1.5916767578125	-0.6484158935546875	0		3.15155712890625	0.0057349419593811036	0		4.39334033203125	0.20069705200195312	0		5.9656748046875	0.34197393798828124	0		-0.3534891357421875	5.86214404296875	0		
-0.012976296424865722	0.0027140719890594482	0		0.577397705078125	-2.451589111328125	0		-1.0040852661132813	0.22146498107910156	0		-0.3279455871582031	-2.82661767578125	0		1.6122091064453126	-0.6636473388671875	0		3.18404931640625	-0.008486772537231445	0		4.4119423828125	0.2006903381347656	0		5.968326171875	0.361425537109375	0		-0.323148681640625	5.8796787109375	0		
0.0055946831703186034	0.004440872192382812	0		0.556203369140625	-2.44147314453125	0		-0.9964671630859375	0.23022193908691407	0		-0.31020407104492187	-2.826903076171875	0		1.6228245849609375	-0.6617424926757812	0		3.16868359375	7.49871015548706E-4	0		4.4104921875	0.20188632202148438	0		5.96730322265625	0.36367669677734377	0		-0.34005447387695314	5.87169140625	0		
-0.015895262718200683	0.004571811199188232	0		0.6037737426757812	-2.45091015625	0		-0.93706884765625	0.21859101867675781	0		-0.30040127563476565	-2.812060546875	0		1.67525732421875	-0.6751612548828125	0		3.169992919921875	-0.0221357421875	0		4.41188525390625	0.1900719909667969	0		5.9626201171875	0.3487062377929688	0		-0.40610757446289064	5.84618603515625	0		
-0.04440078353881836	0.0058091340065002444	0		0.5474132690429687	-2.44640087890625	0		-1.0125828857421875	0.22019053649902343	0		-0.299755126953125	-2.809087646484375	0		1.6826361083984376	-0.6911533203125	0		3.17153076171875	-0.01600485420227051	0		4.4103701171875	0.19128872680664064	0		5.96646630859375	0.330078369140625	0		-0.37285308837890624	5.85186865234375	0		
0.06396698760986329	-0.008093605995178223	0		0.596936279296875	-2.4527734375	0		-1.0162793579101563	0.2002158203125	0		-0.3351291198730469	-2.8047607421875	0		1.6870943603515625	-0.697095458984375	0		3.2028076171875	-0.04012246322631836	0		4.413794921875	0.18545843505859375	0		5.9540419921875	0.34981732177734376	0		-0.37359918212890625	5.8508916015625	0		
-0.020393136978149415	0.007699251174926758	0		0.5445816650390625	-2.444240478515625	0		-1.0037431640625	0.20414698791503907	0		-0.32845913696289064	-2.794759765625	0		1.691569580078125	-0.7030214233398437	0		3.18049755859375	-0.01877627372741699	0		4.42824560546875	0.17952110290527343	0		5.95719140625	0.33111834716796873	0		-0.37425115966796874	5.85095166015625	0		
0.06508028411865234	-0.0019407670497894288	0		0.5711839599609375	-2.443365966796875	0		-1.0092183227539062	0.20126985168457032	0		-0.35877178955078126	-2.784411865234375	0		1.6271717529296874	-0.6983482666015625	0		3.19477685546875	-0.05075362777709961	0		4.4308564453125	0.18666600036621095	0		5.95616650390625	0.3332036437988281	0		-0.3747952880859375	5.85104248046875	0		
-0.01429155158996582	-1.490669995546341E-4	0		0.5777302856445312	-2.453306884765625	0		-1.0156197509765625	0.19942994689941407	0		-0.32615576171875	-2.78658154296875	0		1.802623779296875	-0.718728759765625	0		3.227444091796875	-0.04490102767944336	0		4.44336865234375	0.17469830322265625	0		5.955185546875	0.3352130126953125	0		-0.37620709228515625	5.85216357421875	0		
0.05837071990966797	-0.0036485419273376463	0		0.5914541015625	-2.448303466796875	0		-1.0159968872070313	0.19155955505371094	0		-0.33638092041015627	-2.77536962890625	0		1.8042344970703126	-0.7276267700195312	0		3.20710107421875	-0.048616092681884764	0		4.43106884765625	0.17591001892089844	0		5.96409033203125	0.29368057250976565	0		-0.3424444885253906	5.8579990234375	0		
-0.04583808135986328	-6.289229989051818E-4	0		0.5622012329101562	-2.446934326171875	0		-1.0212496337890624	0.18874458312988282	0		-0.32367404174804687	-2.778347900390625	0		1.799969482421875	-0.7304880981445312	0		3.2208701171875	-0.04865072250366211	0		4.44578955078125	0.1698506317138672	0		5.9482470703125	0.29755023193359376	0		-0.3416129455566406	5.85612353515625	0		
0.06096683502197266	-0.0064236922264099125	0		0.5808763427734375	-2.46098583984375	0		-1.0064284057617188	0.18476318359375	0		-0.38677120971679685	-2.764675048828125	0		1.8076583251953124	-0.7474729614257812	0		3.238599853515625	-0.06275401306152344	0		4.446576171875	0.16186546325683593	0		5.9588818359375	0.3094167785644531	0		-0.3746868896484375	5.84953955078125	0		
